# xmcd
#
# Track frame offsets:
#   150
#   19535
#   34939
#   51785
#   67543
#   83821
#   105598
#   121836
#   138084
#   156023
#   176429
#   195349
#   214891
#   233128
#   252329
#   277123
#   294253
#   311461
#   331988
#
# Disc length: 4672 seconds
#
# Revision: 0
# Processed by: cddbd v1.5.2PL0 Copyright (c) Steve Scherf et al.
# Submitted via: GXTranscoder 2.0.1939
#
DISCID=f8123e13
DTITLE=Ania and Georg's Mix - Mix aus Gesi-Zeit
DYEAR=2001
DGENRE=Children's Music
TTITLE0=Ania's and Georgs Mix
TTITLE1=Ania's and Georgs Mix
TTITLE2=Ania's and Georgs Mix
TTITLE3=Ania's and Georgs Mix
TTITLE4=Ania's and Georgs Mix
TTITLE5=Ania's and Georgs Mix
TTITLE6=Ania's and Georgs Mix
TTITLE7=Ania's and Georgs Mix
TTITLE8=Ania's and Georgs Mix
TTITLE9=Ania's and Georgs Mix
TTITLE10=Ania's and Georgs Mix
TTITLE11=Ania's and Georgs Mix
TTITLE12=Ania's and Georgs Mix
TTITLE13=Ania's and Georgs Mix
TTITLE14=Ania's and Georgs Mix
TTITLE15=Ania's and Georgs Mix
TTITLE16=Ania's and Georgs Mix
TTITLE17=Ania's and Georgs Mix
TTITLE18=Ania's and Georgs Mix
EXTD=
EXTT0=
EXTT1=
EXTT2=
EXTT3=
EXTT4=
EXTT5=
EXTT6=
EXTT7=
EXTT8=
EXTT9=
EXTT10=
EXTT11=
EXTT12=
EXTT13=
EXTT14=
EXTT15=
EXTT16=
EXTT17=
EXTT18=
PLAYORDER=
